<?xml version="1.0" encoding="utf-8" ?>
<svg xmlns="http://www.w3.org/2000/svg" xmlns:xlink="http://www.w3.org/1999/xlink" width="1024" height="1024">
	<path fill="#948D15" transform="scale(2 2)" d="M201.46 63.7841C216.095 73.5074 225.726 90.7418 224.495 108.438C221.489 112.916 218.766 118.165 216.89 123.218C215.767 118.407 205.943 97.4167 199.987 108.621C196.779 114.657 198.222 122.583 197.988 129.128C195.759 124.633 192.663 119.481 188.928 116.079C187.701 114.961 182.588 111.749 182.161 110.551C181.314 104.677 179.732 98.9499 178.858 93.0834C185.428 93.9984 190.522 97.5019 195.525 101.599C192.662 88.9439 192.76 74.2504 201.46 63.7841Z"/>
	<path fill="#DC595A" transform="scale(2 2)" d="M224.495 108.438C228.955 103.243 245.3 88.778 252.615 93.409C254.969 98.218 231.306 120.028 243.844 146.742C249.756 159.337 253.919 156.746 265.388 160.929C278.189 165.597 297.068 175.729 306.054 186.06C301.236 191.3 289.127 193.663 282.396 195.99C195.071 226.183 166.99 353.225 232.279 416.59C235.018 419.247 238.613 421.548 240.71 424.742C232.64 424.761 224.514 424.917 216.459 424.226C151.407 418.647 95.0882 372.131 87.0144 305.45C80.2797 249.828 112.221 197.064 160.818 171.5C164.069 169.79 169.005 168.563 171.276 165.514C176.089 159.049 177.978 148.66 176.952 140.796C174.815 124.417 163.267 118.216 151.761 109.379C164.931 99.1817 178.002 110.786 182.161 110.551C182.588 111.749 187.701 114.961 188.928 116.079C192.663 119.481 195.759 124.633 197.988 129.128C198.222 122.583 196.779 114.657 199.987 108.621C205.943 97.4167 215.767 118.407 216.89 123.218C218.766 118.165 221.489 112.916 224.495 108.438Z"/>
	<path fill="#F47587" transform="scale(2 2)" d="M131.108 224.542C141.42 224.533 131.384 234.778 129.714 237.15C114.38 258.948 114.523 287.478 126.574 310.799C128.765 315.038 135.576 320.151 128.164 323.49C121.357 322.559 114.372 304.397 112.599 298.502C107.099 280.212 108.404 258.526 117.589 241.568C119.898 237.304 126.556 225.907 131.108 224.542Z"/>
	<path fill="#A80831" transform="scale(2 2)" d="M336.964 140.111C343.204 149.998 344.853 155.248 344.762 166.849C348.806 164.001 354.922 159.138 360.274 160.096C367.482 161.386 346.288 175.588 350.017 189.262C352.959 200.054 368.703 207.011 377.452 212.874C390.746 221.782 402.804 236.567 410.467 250.313C448.868 319.2 414.921 421.371 336.892 444.284C307.944 452.784 276.562 447.922 251.336 431.511C247.87 429.257 244.62 426.12 240.71 424.742C238.613 421.548 235.018 419.247 232.279 416.59C166.99 353.225 195.071 226.183 282.396 195.99C289.127 193.663 301.236 191.3 306.054 186.06C314.779 179.491 313.567 171.144 309.848 161.965C303.164 145.47 319.03 160.302 322.8 164.588C323.853 155.08 329.884 146.271 336.964 140.111Z"/>
	<path fill="#F8E5CF" transform="scale(2 2)" d="M327.27 186.06C336.833 184.686 346.496 199.434 353.181 204.659C357.988 208.416 363.305 211.261 368.459 214.477C458.309 270.542 422.868 430.269 318.216 441.326C310.916 442.097 303.909 441.367 296.69 441.788C292.054 440.321 287.163 439.803 282.467 438.514C195.86 414.745 179.585 302.286 232.787 237.733C255.216 210.519 273.703 207.831 302.434 195.77C310.507 192.381 318.421 186.916 327.27 186.06Z"/>
	<path fill="#D10C2E" transform="scale(2 2)" d="M225.613 317.73C228.842 318.682 232.708 319.413 234.459 322.629C241.264 335.132 231.171 339.564 230.253 346.463C225.663 345.091 222.06 344.535 219.313 339.996C214.316 331.738 217.391 322.884 225.199 317.993L225.613 317.73Z"/>
	<path fill="#F47587" transform="scale(2 2)" d="M227.799 324.893C233.267 324.37 234.028 329.716 230.253 332.958C224.88 332.837 223.419 327.654 227.799 324.893Z"/>
	<path fill="#A80831" transform="scale(2 2)" d="M291.868 220.466C306.114 212.639 317.119 225.733 310.096 236.7C312.962 238.305 314.557 239.92 316.464 242.581C318.571 243.06 320.717 243.198 322.8 243.676C324.037 244.221 327.13 242.17 328.569 241.68C323.077 227.337 337.73 219.556 349.076 227.013C349.603 228.104 349.866 229.055 350.099 230.24C354.338 226.513 362.847 227.476 366.535 231.61C368.806 234.156 369.005 237.336 369.201 240.556C381.199 242.351 381.727 249.945 387.996 256.364C392.958 261.446 391.025 269.328 386.756 273.998C400.371 272.174 407.328 284.705 399.104 295.998C399.122 296.505 399.173 297.021 399.104 297.525C399.704 300.67 402.719 300.856 404.417 303.075C408.967 309.018 404.599 319.36 399.104 323.49L399.104 323.49C401.652 327.286 406.285 325.762 404.981 336.032C404.273 341.607 400.827 343.591 397.963 347.826C396.849 349.517 395.411 350.96 393.775 352.151C403.347 360.507 394.132 374.135 385.201 378.76C383.316 379.992 383.031 381.636 382.689 383.677L382.646 384.041C382.056 389.341 384.255 394.19 379.405 398.311C375.339 401.765 369.818 401.544 365.589 398.632C364.703 400.368 363.854 402.618 362.561 404.065C361.516 407.437 364.739 410.464 360.203 415.633C355.445 421.055 347.486 420.96 342.3 416.303C334.815 429.63 319.444 427.423 317.592 415.146C316.81 409.963 319.327 406.728 322.238 402.911C320.935 403.254 319.663 403.636 318.387 404.065C315.888 406.081 314.334 408.735 311.339 410.19C304.449 413.537 298.082 409.173 295.042 402.911L291.868 404.065C290.472 406.17 294.471 418.019 281.452 420.171C274.455 421.327 268.062 415.842 267.125 409.035C257.829 418.656 249.116 410.761 249.301 398.632C238.157 398.285 230.583 386.065 237.498 377.065C238.422 375.863 239.623 374.853 240.478 373.606L240.71 373.26C222.663 381.455 212.536 356.508 230.253 347.826C230.079 347.461 230.222 346.871 230.253 346.463C231.171 339.564 241.264 335.132 234.459 322.629C232.708 319.413 228.842 318.682 225.613 317.73L225.613 316.531C224.191 313.748 221.589 312.62 220.691 309.287C219.161 303.61 222.299 293.163 229.028 291.962C230.344 291.727 231.631 291.938 232.94 291.537L232.94 290.885C225.24 284.497 230.061 269.192 239.879 267.924C240.564 266.835 235.239 246.692 254.106 248.844C249.866 237.1 258.3 227.87 270.297 231.024C272.894 220.127 281.865 216.831 291.868 220.466Z"/>
	<path fill="#D10C2E" transform="scale(2 2)" d="M250.428 299.315C262.096 298.61 269.068 314.669 256.571 317.73C243.23 316.934 238.71 302.006 250.428 299.315Z"/>
	<path fill="#F47587" transform="scale(2 2)" d="M254.106 301.691C259.351 302.249 258.643 307.486 254.687 309.28C249.263 309.022 250.049 303.881 254.106 301.691Z"/>
	<path fill="#D10C2E" transform="scale(2 2)" d="M238.206 336.982C249.524 337.113 254.177 354.498 242.374 357.187C230.167 356.87 227.633 342.869 238.206 336.982Z"/>
	<path fill="#F47587" transform="scale(2 2)" d="M241.273 340.489C246.138 340.282 246.881 344.826 243.474 347.826C238.119 347.852 237.579 343.277 241.273 340.489Z"/>
	<path fill="#D10C2E" transform="scale(2 2)" d="M338.194 360.245C350.948 359.182 353.727 379.044 340.075 378.76C324.631 379.886 324.733 361.517 338.194 360.245Z"/>
	<path fill="#F47587" transform="scale(2 2)" d="M340.075 362.513C344.117 362.767 345.357 366.444 341.676 368.761C336.524 369.068 335.799 364.466 340.075 362.513Z"/>
	<path fill="#D10C2E" transform="scale(2 2)" d="M264.757 259.007C276.547 257.477 281.554 277.316 268.856 278.96C254.279 278.663 251.837 260.826 264.757 259.007Z"/>
	<path fill="#F47587" transform="scale(2 2)" d="M268.856 261.761C273.756 262.413 273.773 267.525 269.445 268.906C264.193 268.049 264.252 263.248 268.856 261.761Z"/>
	<path fill="#D10C2E" transform="scale(2 2)" d="M359.178 356.523C371.671 354.444 376.539 372.169 362.561 376.537C347.789 374.452 347.048 358.874 359.178 356.523Z"/>
	<path fill="#F47587" transform="scale(2 2)" d="M361.276 359.147C365.766 358.554 367.843 362.684 363.988 365.205C359.474 366.107 357.869 361.621 361.276 359.147Z"/>
	<path fill="#D10C2E" transform="scale(2 2)" d="M319.977 269.496C330.61 262.114 345.795 272.359 333.226 285.216C322.476 289.48 312.102 278.65 319.977 269.496Z"/>
	<path fill="#F47587" transform="scale(2 2)" d="M327.27 268.906C332.518 267.893 334.588 272.775 330.218 275.512C324.865 277.098 323.886 271.906 327.27 268.906Z"/>
	<path fill="#D10C2E" transform="scale(2 2)" d="M371.446 315.067C378.416 314.17 382.442 319.073 385.201 324.893C377.199 328.879 379.517 332.197 377.234 334.139C360.621 336.799 356.266 317.191 371.446 315.067Z"/>
	<path fill="#F47587" transform="scale(2 2)" d="M372.383 317.73C376.574 317.292 378.442 320.925 375.243 324.044C369.827 325.031 367.834 320.502 372.383 317.73Z"/>
	<path fill="#D10C2E" transform="scale(2 2)" d="M311.943 308.323C324.123 306.862 329.121 325.577 315.709 328.165C301.724 329.173 298.477 310.614 311.943 308.323Z"/>
	<path fill="#F47587" transform="scale(2 2)" d="M315.084 310.885C320.155 310.95 319.446 316.061 315.709 317.73C310.34 317.743 310.816 312.878 315.084 310.885Z"/>
	<path fill="#D10C2E" transform="scale(2 2)" d="M326.183 324.044C339.371 323.114 346.005 338.489 332.627 343.43C320.234 345.299 312.395 327.898 326.183 324.044Z"/>
	<path fill="#F47587" transform="scale(2 2)" d="M330.218 326.766C334.73 326.336 336.659 330.031 332.627 332.958C327.983 334.109 327.032 329.45 330.218 326.766Z"/>
	<path fill="#D10C2E" transform="scale(2 2)" d="M294.274 291.537C296.508 291.611 299.166 291.438 301.272 292.221C310.775 295.753 310.502 307.146 301.558 310.885L301.327 310.932C287.773 313.804 282.09 295.153 294.274 291.537Z"/>
	<path fill="#F47587" transform="scale(2 2)" d="M298.869 294.663C304.004 294.075 305.039 298.21 301.558 301.691C297.19 301.594 294.593 296.996 298.869 294.663Z"/>
	<path fill="#D10C2E" transform="scale(2 2)" d="M343.329 340.489C355.115 337.491 362.389 355.534 349.076 359.147C334.033 362.483 330.196 341.57 343.329 340.489Z"/>
	<path fill="#F47587" transform="scale(2 2)" d="M346.184 343.43C350.953 343.259 352.354 346.889 349.076 350.004C344.696 349.96 341.744 345.667 346.184 343.43Z"/>
	<path fill="#D10C2E" transform="scale(2 2)" d="M351.755 319.758C361.445 317.534 368.841 338.297 351.755 339.302C339.223 339.311 336.753 320.211 351.755 319.758Z"/>
	<path fill="#F47587" transform="scale(2 2)" d="M351.755 322.156C357.588 321.177 357.1 326.731 353.585 329.295C349.443 328.687 347.708 324.13 351.755 322.156Z"/>
	<path fill="#D10C2E" transform="scale(2 2)" d="M321.049 346.463C333.186 344.245 336.324 364.879 322.8 366.023C308.353 365.883 304.951 348.869 321.049 346.463Z"/>
	<path fill="#F47587" transform="scale(2 2)" d="M322.238 348.532C327.372 347.847 328.132 352.454 324.535 355.065C319.822 355.433 318.165 350.835 322.238 348.532Z"/>
	<path fill="#D10C2E" transform="scale(2 2)" d="M332.627 304.042C347.133 302.927 351.2 320.748 338.194 323.49C323.259 324.781 319.851 307.471 332.627 304.042Z"/>
	<path fill="#F47587" transform="scale(2 2)" d="M335.471 306.503C340.904 306.257 340.894 311.047 336.964 313.249C332.275 313.505 331.938 308.426 335.471 306.503Z"/>
	<path fill="#D10C2E" transform="scale(2 2)" d="M311.943 367.604C325.16 368.427 327.258 383.884 313.503 387.862C299.291 389.506 297.268 368.779 311.943 367.604Z"/>
	<path fill="#F47587" transform="scale(2 2)" d="M313.503 370.734C318.638 370.525 319.871 375.27 315.709 377.677C310.697 378.567 310.023 373.181 313.503 370.734Z"/>
	<path fill="#D10C2E" transform="scale(2 2)" d="M270.297 295.998C284.795 295.689 291.324 311.156 279.042 315.819C265.204 319.502 258.349 301.506 270.297 295.998Z"/>
	<path fill="#F47587" transform="scale(2 2)" d="M275.287 299.315C280.698 298.966 281.166 303.812 277.466 306.503C272.696 307.385 271.615 301.626 275.287 299.315Z"/>
	<path fill="#D10C2E" transform="scale(2 2)" d="M366.694 307.534C358.024 287.563 392.35 288.597 385.201 306.503C381.852 314.195 370.801 315.385 366.694 307.534Z"/>
	<path fill="#F47587" transform="scale(2 2)" d="M377.234 295.998C382.24 295.798 382.764 300.278 378.951 302.464C374.238 302.687 373.245 297.93 377.234 295.998Z"/>
	<path fill="#D10C2E" transform="scale(2 2)" d="M279.679 275.512C294.621 274.821 298.22 291.65 285.026 294.663C270.251 298.137 266.582 276.592 279.679 275.512Z"/>
	<path fill="#F47587" transform="scale(2 2)" d="M283.318 278.96C288.108 278 288.877 282.863 285.026 285.216C280.459 285.592 279.171 280.709 283.318 278.96Z"/>
	<path fill="#D10C2E" transform="scale(2 2)" d="M318.387 288.072C332.43 286.579 335.355 305.607 322.8 307.534C306.348 308.805 305.102 289.993 318.387 288.072Z"/>
	<path fill="#F47587" transform="scale(2 2)" d="M321.049 290.885C326.789 289.976 327.003 295.222 322.8 297.525C318.084 298.302 317.229 292.823 321.049 290.885Z"/>
	<path fill="#D10C2E" transform="scale(2 2)" d="M244.885 315.819C259.727 316.845 261.315 334.499 249.301 336.982C234.943 337.855 232.474 318.472 244.885 315.819Z"/>
	<path fill="#F47587" transform="scale(2 2)" d="M248.018 319.758C253.266 319.595 254.542 324.047 250.428 326.766C245.431 326.868 243.786 322.288 248.018 319.758Z"/>
	<path fill="#D10C2E" transform="scale(2 2)" d="M302.748 271.047C315.85 269.526 321.898 286.816 308.244 290.885C291.966 292.366 290.379 274.231 302.748 271.047Z"/>
	<path fill="#F47587" transform="scale(2 2)" d="M306.054 273.998C311.826 274.473 311.869 278.223 308.244 281.576C303.363 281.919 302.239 276.315 306.054 273.998Z"/>
	<path fill="#D10C2E" transform="scale(2 2)" d="M284.051 334.139C294.77 330.017 301.866 350.964 285.026 354.006C269.049 349.481 270.917 333.473 284.051 334.139Z"/>
	<path fill="#F47587" transform="scale(2 2)" d="M285.026 336.539C290.018 336.329 291.709 340.745 287.626 343.43C282.738 344.651 281.106 339.009 285.026 336.539Z"/>
	<path fill="#D10C2E" transform="scale(2 2)" d="M271.691 355.065C286.438 353.572 291.249 369.692 277.466 374.585C263.82 377.549 258.384 357.423 271.691 355.065Z"/>
	<path fill="#F47587" transform="scale(2 2)" d="M276.25 357.187C281.654 357.408 281.545 362.573 277.466 365.205C272.114 365.453 272.205 359.226 276.25 357.187Z"/>
	<path fill="#D10C2E" transform="scale(2 2)" d="M285.026 255.853C298.852 254.897 306.729 265.777 293.844 275.512C280.981 279.946 272.915 262.718 285.026 255.853Z"/>
	<path fill="#F47587" transform="scale(2 2)" d="M290.57 259.007C295.494 258.925 295.231 264.241 291.868 266.308C285.73 266.349 285.972 261.397 290.57 259.007Z"/>
	<path fill="#D10C2E" transform="scale(2 2)" d="M255.485 280.061C270.452 278.95 274.76 295.989 262.001 300.089C247.114 300.527 242.361 282.826 255.485 280.061Z"/>
	<path fill="#F47587" transform="scale(2 2)" d="M259.829 282.488C265.206 282.665 265.246 287.949 260.883 289.725C255.393 289.1 255.508 284.582 259.829 282.488Z"/>
	<path fill="#D10C2E" transform="scale(2 2)" d="M306.054 329.295C317.906 328.234 322.141 347.153 308.244 350.004C293.281 350.026 290.816 332.233 306.054 329.295Z"/>
	<path fill="#F47587" transform="scale(2 2)" d="M306.965 332.958C311.71 332.109 313.599 335.758 310.096 339.302C305.713 340.22 301.888 334.864 306.965 332.958Z"/>
	<path fill="#D10C2E" transform="scale(2 2)" d="M286.734 312.297C299.604 311.254 307.837 328.79 294.274 332.958C281.406 336.415 273.344 316.749 286.734 312.297Z"/>
	<path fill="#F47587" transform="scale(2 2)" d="M291.041 315.819C295.721 315.139 297.738 318.938 293.844 322.156C289.05 323.477 286.609 318.141 291.041 315.819Z"/>
	<path fill="#D10C2E" transform="scale(2 2)" d="M365.589 336.539C378.932 333.994 385.264 354.984 371.446 356.523C355.621 356.74 351.659 340.141 365.589 336.539Z"/>
	<path fill="#F47587" transform="scale(2 2)" d="M370.011 340.489C374.857 339.823 376.228 344.039 372.383 346.463C367.312 347.11 365.26 341.861 370.011 340.489Z"/>
	<path fill="#D10C2E" transform="scale(2 2)" d="M264.757 316.531C281.293 315.611 283.681 333.634 271.691 336.982C258.888 340.897 251.222 320.466 264.757 316.531Z"/>
	<path fill="#F47587" transform="scale(2 2)" d="M268.856 319.758C273.615 319.776 275.814 323.959 271.691 326.766C266.619 328.041 265.04 322.876 268.856 319.758Z"/>
	<path fill="#D10C2E" transform="scale(2 2)" d="M296.69 351.785C311.912 349.27 314.413 369.206 298.869 371.695C284.919 372.74 281.279 351.522 296.69 351.785Z"/>
	<path fill="#F47587" transform="scale(2 2)" d="M298.869 354.006C304.294 354.138 304.627 358.872 300.584 361.353C295.731 361.986 294.641 355.793 298.869 354.006Z"/>
	<path fill="#D10C2E" transform="scale(2 2)" d="M288.457 373.26C301.892 374.099 305.215 393.47 289.518 394.025C274.389 394.267 272.326 375.607 288.457 373.26Z"/>
	<path fill="#F47587" transform="scale(2 2)" d="M289.518 376.537C294.488 376.971 294.387 381.135 290.57 383.677C286.14 383.174 285.203 377.809 289.518 376.537Z"/>
	<path fill="#D10C2E" transform="scale(2 2)" d="M232.94 290.885C225.24 284.497 230.061 269.192 239.879 267.924C240.092 271.784 248.629 271.369 250.116 277.041C251.197 281.16 247.771 290.669 242.73 291.58C240.064 292.062 234.261 289.185 232.94 290.885Z"/>
	<path fill="#F47587" transform="scale(2 2)" d="M242.374 273.998C247.438 274.444 247.732 279.791 243.474 281.576C237.697 281.338 238.119 276.153 242.374 273.998Z"/>
	<path fill="#D10C2E" transform="scale(2 2)" d="M295.042 402.911C293.809 389.215 306.439 385.644 314.603 393.426C318.371 397.017 317.052 399.917 318.387 404.065C315.888 406.081 314.334 408.735 311.339 410.19C304.449 413.537 298.082 409.173 295.042 402.911Z"/>
	<path fill="#F47587" transform="scale(2 2)" d="M306.054 392.284C311.184 392.637 312.673 397.089 308.244 399.667C303.995 399.92 302.752 394.396 306.054 392.284Z"/>
	<path fill="#D10C2E" transform="scale(2 2)" d="M399.104 297.525C399.704 300.67 402.719 300.856 404.417 303.075C408.967 309.018 404.599 319.36 399.104 323.49C396.185 320.652 378.445 323.144 385.916 306.503C392.125 297.28 398.813 301.915 399.104 297.525Z"/>
	<path fill="#F47587" transform="scale(2 2)" d="M394.481 305.246C399.559 305.142 400.792 309.756 396.743 312.297C391.587 312.598 390.365 307.7 394.481 305.246Z"/>
	<path fill="#D10C2E" transform="scale(2 2)" d="M232.94 291.537C236.161 293.702 241.612 295.766 242.472 299.926C246.617 319.958 227.367 314.914 225.613 316.531C224.191 313.748 221.589 312.62 220.691 309.287C219.161 303.61 222.299 293.163 229.028 291.962C230.344 291.727 231.631 291.938 232.94 291.537Z"/>
	<path fill="#F47587" transform="scale(2 2)" d="M232.94 296.508C238.261 296.411 238.075 301.721 234.471 304.042C229.225 303.76 228.233 298.464 232.94 296.508Z"/>
	<path fill="#D10C2E" transform="scale(2 2)" d="M399.104 323.49C401.652 327.286 406.285 325.762 404.981 336.032C404.273 341.607 400.827 343.591 397.963 347.826C394.633 346.398 390.56 349.209 385.876 346.044C380.56 342.451 379.502 333.804 382.988 328.661C386.731 323.139 393.473 324.658 399.104 323.49Z"/>
	<path fill="#F47587" transform="scale(2 2)" d="M393.775 328.165C399.509 328.671 397.92 333.648 393.775 335.277C388.985 334.769 389.893 329.393 393.775 328.165Z"/>
	<path fill="#D10C2E" transform="scale(2 2)" d="M385.201 378.76C385.722 376.281 383.92 377.015 381.986 376.758C367.266 374.801 367.296 348.055 393.775 352.151C403.347 360.507 394.132 374.135 385.201 378.76Z"/>
	<path fill="#F47587" transform="scale(2 2)" d="M385.201 357.187C390.427 356.71 390.05 361.968 386.756 364.26C381.231 364.486 380.968 359.543 385.201 357.187Z"/>
	<path fill="#D10C2E" transform="scale(2 2)" d="M258.263 337.798C274.951 336.798 276.587 362.224 255.485 357.187C262.051 362.356 267.084 370.864 258.263 376.537C244.185 384.839 237.595 356.381 255.485 357.187C248.989 350.452 247.165 339.906 258.263 337.798Z"/>
	<path fill="#F47587" transform="scale(2 2)" d="M254.106 360.245C259.246 359.766 258.48 365.365 255.485 367.604C250.226 367.261 249.684 362.624 254.106 360.245Z"/>
	<path fill="#F47587" transform="scale(2 2)" d="M262.001 340.489C267.236 340.436 266.737 345.461 263.458 347.826C258.139 347.706 257.718 342.574 262.001 340.489Z"/>
	<path fill="#D10C2E" transform="scale(2 2)" d="M334.631 285.216C340.589 277.131 362.426 285.762 350.099 300.089C354.779 297.527 359.514 297.003 363.988 300.089C364.393 302.544 364.501 305.268 365.589 307.534C369.364 321.453 339.934 317.835 347.707 303.213C347.941 302.773 348.715 301.672 348.725 301.215L348.294 301.6L348.15 301.514C340.046 307.363 327.037 294.477 334.631 285.216Z"/>
	<path fill="#F47587" transform="scale(2 2)" d="M357.754 300.089C362.817 299.745 363.264 304.721 359.178 306.503C354.201 307.199 353.862 301.967 357.754 300.089Z"/>
	<path fill="#F47587" transform="scale(2 2)" d="M343.329 283.982C348.367 284.268 348.857 289.516 344.762 291.537C339.452 291.281 339.221 286.183 343.329 283.982Z"/>
	<path fill="#D10C2E" transform="scale(2 2)" d="M356.198 397.047C353.09 397.123 349.917 397.317 346.877 396.529C329.421 392.006 351.155 363.656 361.276 384.692C371.844 371.758 378.291 383.169 382.689 383.677L382.646 384.041C382.056 389.341 384.255 394.19 379.405 398.311C375.339 401.765 369.818 401.544 365.589 398.632C363.994 396.491 362.39 394.759 361.276 392.284C359.782 394.162 358.267 395.807 356.198 397.047Z"/>
	<path fill="#F47587" transform="scale(2 2)" d="M374.073 383.013C378.662 383.039 379.342 387.841 375.243 389.307C370.928 391.022 369.882 385.107 374.073 383.013Z"/>
	<path fill="#F47587" transform="scale(2 2)" d="M351.755 380.052C357.401 379.483 357.224 384.525 353.585 387.084C349.267 386.345 346.995 381.835 351.755 380.052Z"/>
	<path fill="#D10C2E" transform="scale(2 2)" d="M346.184 260.087C356.392 259.103 362.697 265.529 357.754 275.512C367.959 268.19 385.219 280.324 370.011 293.421C360.387 298.891 352.24 290.509 354.418 278.96C336.064 284.504 332.18 261.938 346.184 260.087Z"/>
	<path fill="#F47587" transform="scale(2 2)" d="M349.076 261.761C353.895 262.7 354.14 267.471 350.099 269.496C344.246 269.011 345.297 264.193 349.076 261.761Z"/>
	<path fill="#F47587" transform="scale(2 2)" d="M365.589 276.269C371.064 276.381 369.839 281.599 366.694 283.982C361.391 283.463 361.325 278.291 365.589 276.269Z"/>
	<path fill="#D10C2E" transform="scale(2 2)" d="M329.455 400.388C316.616 399.383 316.305 381.069 327.96 380.089C337.282 379.305 343.64 390.082 336.964 397.047C338.924 398.399 340.298 399.467 341.676 401.438C340.404 404.659 338.194 411.758 341.427 414.581L341.717 414.537C341.747 410.161 339.317 408.848 341.993 403.527L342.3 402.911C346.036 397.439 353.191 396.185 358.566 400.365C359.976 401.463 361.024 403.166 362.561 404.065C361.516 407.437 364.739 410.464 360.203 415.633C355.445 421.055 347.486 420.96 342.3 416.303C334.815 429.63 319.444 427.423 317.592 415.146C316.81 409.963 319.327 406.728 322.238 402.911C324.711 402.321 327.086 401.299 329.455 400.388Z"/>
	<path fill="#F47587" transform="scale(2 2)" d="M335.471 397.826C340.238 398.537 338.459 403.469 334.631 404.065C330.058 401.958 330.465 398.848 335.471 397.826Z"/>
	<path fill="#F47587" transform="scale(2 2)" d="M330.218 383.013C334.579 382.682 336.3 386.48 332.627 389.307C328.082 389.809 325.359 384.927 330.218 383.013Z"/>
	<path fill="#F47587" transform="scale(2 2)" d="M329.455 408.024C334.08 407.635 336.236 411.792 332.627 414.725C327.57 414.883 325.224 411.273 329.455 408.024Z"/>
	<path fill="#F47587" transform="scale(2 2)" d="M352.82 401.438C357.875 401.102 358.042 406.798 353.585 408.024C348.397 408.027 348.608 402.938 352.82 401.438Z"/>
	<path fill="#D10C2E" transform="scale(2 2)" d="M230.253 347.826C228.938 350.774 229.265 352.046 230.253 355.065C231.668 355.886 233.635 356.727 234.471 358.17C234.878 358.408 235.822 359.099 236.248 359.147C237.699 359.047 239.26 359.968 240.71 360.245C240.733 363.484 241.643 370.647 240.71 373.26C245.467 378.05 249.726 377.73 255.485 380.052C256.199 381.226 256.697 382.403 257.2 383.677C264.317 375.143 276.72 375.404 277.223 388.608C277.667 400.234 261.545 400.247 257.2 389.307C254.764 394.292 251.97 394.793 250.208 397.6L250.348 397.925C258.98 399.247 264.838 391.802 267.125 409.035C268.843 401.655 274.226 394.12 282.672 396.272C289.726 398.069 289.743 402.856 291.868 404.065C290.472 406.17 294.471 418.019 281.452 420.171C274.455 421.327 268.062 415.842 267.125 409.035C257.829 418.656 249.116 410.761 249.301 398.632C238.157 398.285 230.583 386.065 237.498 377.065C238.422 375.863 239.623 374.853 240.478 373.606L240.71 373.26C222.663 381.455 212.536 356.508 230.253 347.826Z"/>
	<path fill="#F47587" transform="scale(2 2)" d="M257.2 399.667C261.697 398.429 262.672 402.811 259.829 405.416C255.829 406.496 253.444 401.764 257.2 399.667Z"/>
	<path fill="#F47587" transform="scale(2 2)" d="M243.931 378.76C249.204 378.311 250.708 383.24 246.564 385.948C241.626 386.308 240.514 381.546 243.931 378.76Z"/>
	<path fill="#F47587" transform="scale(2 2)" d="M268.005 380.052C273.254 379.799 274.488 384.614 270.297 387.084C265.362 387.099 263.015 382.059 268.005 380.052Z"/>
	<path fill="#F47587" transform="scale(2 2)" d="M234.471 358.17C234.878 358.408 235.822 359.099 236.248 359.147C237.649 360.783 238.359 362.654 236.97 364.619C233.756 369.168 224.822 358.813 234.471 358.17Z"/>
	<path fill="#F47587" transform="scale(2 2)" d="M279.042 400.388C284.689 399.786 285.377 405.825 280.946 408.024C275.703 407.797 274.489 402.589 279.042 400.388Z"/>
	<path fill="#D10C2E" transform="scale(2 2)" d="M328.569 241.68C323.077 227.337 337.73 219.556 349.076 227.013C349.603 228.104 349.866 229.055 350.099 230.24C354.338 226.513 362.847 227.476 366.535 231.61C368.806 234.156 369.005 237.336 369.201 240.556C381.199 242.351 381.727 249.945 387.996 256.364C392.958 261.446 391.025 269.328 386.756 273.998C400.371 272.174 407.328 284.705 399.104 295.998C398.001 291.724 394.62 297.884 388.839 297.143C376.508 295.561 373.793 282.921 385.201 274.697C378.285 275.843 374.102 274.755 371.446 267.924L371.021 267.807C362.304 265.326 356.124 259.87 359.178 250.368C351.949 250.234 347.194 247.232 346.184 239.708C338.974 246.372 338.886 243.385 331.313 241.954C332.419 243.21 338.886 243.031 341.517 247.536C347.916 258.496 329.706 273.166 321.922 256.468C319.607 251.502 321.056 248.379 322.8 243.676C324.037 244.221 327.13 242.17 328.569 241.68Z"/>
	<path fill="#A80831" transform="scale(2 2)" d="M349.076 227.013C349.603 228.104 349.866 229.055 350.099 230.24C349.52 230.601 349.394 231.34 348.684 231.688L348.256 231.522C347.743 230.191 348.172 228.069 349.076 227.013Z"/>
	<path fill="#F47587" transform="scale(2 2)" d="M388.875 280.061C393.714 279.455 395.423 283.588 391.599 286.282C387.028 287.274 385.132 282.558 388.875 280.061Z"/>
	<path fill="#F47587" transform="scale(2 2)" d="M382.689 258.252C387.618 258.482 388.123 263.114 384.049 265.046C378.505 265.688 378.433 260.47 382.689 258.252Z"/>
	<path fill="#F47587" transform="scale(2 2)" d="M371.446 250.368C376.633 250.101 377.822 254.189 374.073 257.131C369.347 257.987 367.446 252.716 371.446 250.368Z"/>
	<path fill="#F47587" transform="scale(2 2)" d="M336.964 228.735C342.077 228.594 343.378 233.201 339.276 235.768C334.238 235.924 332.966 231.297 336.964 228.735Z"/>
	<path fill="#F47587" transform="scale(2 2)" d="M331.321 246.241C336.138 246.452 337.062 251.466 333.226 253.748C328.076 253.476 326.781 248.471 331.321 246.241Z"/>
	<path fill="#F47587" transform="scale(2 2)" d="M356.198 233.261C361.043 233.793 361.795 238.377 357.754 240.556C352.3 241.3 351.26 235.734 356.198 233.261Z"/>
	<path fill="#D10C2E" transform="scale(2 2)" d="M291.868 220.466C306.114 212.639 317.119 225.733 310.096 236.7C312.962 238.305 314.557 239.92 316.464 242.581C316.673 256.822 306.164 248.107 304.112 255.853C313.968 245.659 330.053 258.546 319.977 268.906C309.116 275.218 300.276 267 304.112 255.853C298.679 260.644 290.853 246.067 297.758 238.572C295.275 237.571 293.493 236.733 291.868 234.497C287.468 241.719 283.336 236.518 278.267 241.409L278.123 241.378L278.43 241.256L278.051 241.715C280.309 241.338 280.481 239.259 285.249 240.024C292.44 241.179 295.886 248.355 293.844 254.909C291.476 254.965 288.446 254.486 286.178 254.923C282.795 255.575 280.49 260.663 276.841 257.14C272.834 253.272 273.616 246.245 277.466 242.581C275.595 238.349 273.945 234.087 270.297 231.024C272.08 233.916 276.82 239.179 275.859 242.829C270.609 262.79 258.623 250.338 254.809 250.463C254.934 252.458 259.863 253.538 260.249 257.136C260.266 257.294 256.284 267.052 255.485 269.496C248.796 272.313 245.725 268.399 239.879 267.924C240.564 266.835 235.239 246.692 254.106 248.844C249.866 237.1 258.3 227.87 270.297 231.024C272.894 220.127 281.865 216.831 291.868 220.466Z"/>
	<path fill="#F47587" transform="scale(2 2)" d="M315.084 254.909C320.209 254.844 320.088 260.07 315.709 261.761C311.342 260.681 310.136 255.565 315.084 254.909Z"/>
	<path fill="#F47587" transform="scale(2 2)" d="M306.054 238.572C311.035 238.018 311.81 242.931 308.244 245.411C302.865 245.862 302.016 241.104 306.054 238.572Z"/>
	<path fill="#F47587" transform="scale(2 2)" d="M286.734 243.676C292.296 243.155 292.48 248.068 288.457 250.368C283.482 250.832 282.597 245.618 286.734 243.676Z"/>
	<path fill="#F47587" transform="scale(2 2)" d="M252.712 253.748C258.255 253.736 258.172 258.754 254.106 260.956C248.984 260.739 248.746 255.863 252.712 253.748Z"/>
	<path fill="#F47587" transform="scale(2 2)" d="M267.125 236.7C272.192 236.493 272.881 241.598 268.856 243.676C263.78 244.348 263.043 238.712 267.125 236.7Z"/>
	<path fill="#F47587" transform="scale(2 2)" d="M283.318 223.509C288.618 223.229 288.426 228.6 285.026 231.024C279.244 231.071 279.052 226 283.318 223.509Z"/>
	<path fill="#F47587" transform="scale(2 2)" d="M302.748 223.509C308.306 222.421 307.972 227.939 304.112 230.24C299.272 230.318 297.908 225.276 302.748 223.509Z"/>
</svg>
