<?xml version="1.0" encoding="utf-8" ?>
<svg xmlns="http://www.w3.org/2000/svg" xmlns:xlink="http://www.w3.org/1999/xlink" width="1024" height="1024">
	<path fill="#1CA9C0" transform="scale(2 2)" d="M305.277 131.997C302.314 111.463 302.502 93.3987 297.381 71.9485C296.667 68.9576 294.426 63.2604 294.424 60.6737C294.423 57.5263 297.67 55.2184 299.764 58.5062C301.104 60.6106 302.566 66.2549 303.472 68.8462C311.38 91.4764 315.112 110.039 316.765 133.675C316.969 136.589 318.14 139.336 316.879 142.187C313.81 149.124 292.409 169.041 291.767 172.06C292.753 172.745 296.521 168.636 297.451 167.77C302.857 162.731 338.502 136.575 345.822 136.719C352.355 120.562 362.67 109.445 376.004 99.1702C383.161 93.6553 392.891 76.7808 397.801 69.1117C399.379 66.647 403.19 56.5346 407.389 58.4047C411.846 60.3896 403.859 72.7542 402.612 75.2353C391.842 96.6574 390.66 98.352 375.272 115.38C367.622 123.845 360.995 133.49 355.247 143.324C355.51 153.244 345.581 155.346 338.508 159.549C328.861 165.281 302.499 183.071 296.922 192.445C297.146 194.708 296.964 197.076 296.922 199.351C315.984 193.968 342.636 187.535 361.819 188.299C373.893 180.896 391.272 164.766 401.675 155.161C405.143 151.959 409.973 146.747 413.478 144.12C415.861 142.334 419.117 144.592 418.139 147.358C414.656 157.209 378.234 192.612 369.735 197.008C366.28 206.043 361.738 205.022 352.857 205.867C334.252 207.638 320.163 211.85 302.106 215.534C298.33 216.304 294.562 216.535 290.778 217.137C289.253 219.686 287.232 221.884 285.62 224.386C287.903 226.382 290.033 228.637 292.204 230.759L292.841 230.606C302.851 228.257 311.136 229.199 321.132 230.874L335.527 233.313C341.813 234.426 348.359 235.209 354.541 236.762C362.206 238.688 359.519 241.447 363.657 245.722C367.061 249.239 371.063 252.387 374.754 255.605L393.841 272.438C396.668 274.963 400.785 279.939 403.444 281.742C410.35 286.424 432.582 296.323 441.025 300.059C443.375 301.1 457.076 304.461 453.205 309.229C450.383 312.705 434.967 306.235 431.46 305.049C418.435 300.646 408.758 297.694 397.143 290.372C381.16 280.296 368.676 268.828 355.247 255.497C344.577 258.387 317.181 246.017 302.438 245.56C305.493 252.18 307.516 258.736 309.208 265.808C321.313 274.969 334.686 282.679 347.337 291.059C351.956 294.118 358.517 297.899 362.282 301.874C362.973 302.603 367.08 316.957 368.47 320.298C376.173 338.808 383.981 357.378 396.537 373.196C398.773 376.013 397.311 380.463 393.701 378.935C384.291 374.95 356.548 325.859 352.115 315.752C336.541 306.568 325.438 296.647 310.962 286.542C310.88 291.718 310.109 296.726 309.208 301.807C314.987 309.837 325.403 320.844 329.565 329.329C331.591 333.457 329.97 338.53 330.519 343.008C331.632 352.085 337.73 382.953 337.162 389.126C337.049 390.349 332.796 398.836 331.901 401.572C330.862 405.496 329.274 409.322 327.9 413.141L320.32 434.141C318.537 439.167 317.222 445.493 315.133 450.192C314.089 452.541 311.205 454.162 310.158 450.775C307.985 443.746 317.672 402.643 323.276 392.43C318.553 386.278 316.212 348.443 315.956 340.459C310.439 335.471 306.064 327.825 302.438 321.352C292.02 336.211 283.903 350.999 264.578 357.609C244.268 364.556 216.851 339.166 210.799 321.352C205.323 327.047 202.542 334.851 196.895 340.459C195.836 344.627 195.687 349.37 195.196 353.66L192.14 380.067C191.672 384.01 191.589 388.793 190.032 392.43C191.065 396.529 193.155 400.321 194.32 404.408C198.017 417.37 201.423 433.464 202.426 446.974C202.848 452.657 197.948 454.978 196.523 448.857C194.471 440.042 181.311 397.9 175.772 390.581C175.228 379.761 180.846 353.622 182.235 341.408C182.939 335.226 179.408 334.969 183.658 327.905C186.114 323.822 200.656 304.405 203.831 301.807C202.303 296.851 202.119 291.685 202.108 286.542C190.989 293.454 180.64 302.584 170.05 310.369C153.791 322.322 161.306 314.682 151.726 333.227C148.567 339.342 122.966 381.704 116.42 379.539C110.681 377.64 120.939 367.019 122.328 365.102C133.914 349.118 140.834 329.369 147.993 311.172C145.778 301.882 153.944 299.077 160.819 294.15C167.603 289.289 197.07 268.044 203.831 265.808C206.073 258.873 207.648 252.237 210.799 245.56C202.676 246.849 161.456 256.996 156.753 255.497C143.382 266.089 135.497 278.659 118.201 286.542C113.749 295.478 67.8484 310.238 59.871 309.884C57.234 309.768 56.5118 306.43 58.5138 304.816C60.7168 303.039 68.5727 300.93 71.7375 299.753C84.2878 295.089 96.6915 288.676 108.207 281.936C112.166 279.619 115.044 275.868 118.326 272.712C125.092 266.207 140.692 251.174 148.96 246.849C149.909 242.344 150.989 239.903 155.484 238.487C171.783 233.35 205.802 228.093 221.741 228.507C223.398 227.236 224.944 225.763 226.517 224.386C225.137 223.034 223.613 221.226 221.935 220.289C210.538 213.926 176.872 208.27 164.11 206.554C153.704 205.155 145.154 207.58 142.063 197.008C123.774 183.786 114.36 174.209 100.148 155.885C98.3747 153.598 94.6984 150.203 94.558 147.245C94.3364 142.577 98.3461 143.803 100.494 146.161C107.882 154.272 115.952 161.59 124.581 168.353L138.421 179.164C142.035 181.996 146.067 184.716 148.96 188.299C158.899 186.007 200.524 195.294 214.748 199.351L214.748 190.3C205.068 180.79 186.462 168.03 175.17 160.592C166.037 154.577 156.623 153.034 156.753 141.409C144.837 121.494 128.541 110.401 118.277 90.123L110.961 75.9271C109.648 73.3939 104.572 63.5451 104 61.42C103.33 58.9336 106.388 56.6365 108.421 58.3283C110.297 59.8901 112.561 64.8623 113.832 67.0711L123.267 83.395C130.041 95.1683 128.069 92.1203 137.831 100.53C146.926 108.365 155.035 117.204 161.936 127.03C169.787 138.21 164.709 133.54 176.384 141.122C188.153 148.765 199.956 156.521 210.69 165.595C213.161 167.684 216.359 171.549 218.996 172.899L219.38 172.772C219.493 169.61 199.351 151.171 195.516 144.049C192.831 139.062 195.348 138.253 195.673 133.796C197.503 108.686 201.228 91.0449 209.278 66.6868C210.333 63.4949 210.675 59.0195 213.892 57.2587C221.559 56.8215 215.054 69.8699 213.836 75.3027C211.162 87.2276 209.742 99.5751 208.754 111.753C208.192 118.683 208.293 126.214 206.759 132.965C212.892 138.312 222.972 151.683 227.836 158.383C230.085 156.036 232.13 154.102 234.955 152.44C223.82 131.149 227.584 114.389 253.373 111.439C245.287 116.656 234.747 117.617 232.495 130.017C231.241 136.916 236.124 144.24 239.912 149.531C242.251 148.314 244.736 147.579 247.262 146.861C247.221 144.367 247.524 141.812 247.135 139.338L247.585 139.381L247.542 139.185L247.268 139.109L247.313 138.875L247.478 138.783C248.842 139.871 249.495 144.297 249.876 146.024C253.993 145.796 258.151 145.993 262.275 146.024C262.531 144.348 262.993 140.275 264.234 139.15C265.238 140.543 264.733 145.074 264.728 146.861C267.268 147.521 269.606 148.51 272.015 149.531C283.272 137.262 282.373 122.933 266.618 115.011C265.112 114.254 261.557 113.568 260.748 112.079L260.678 112.305L260.541 112.148C262.657 111.057 268.599 113.49 270.628 114.528C288.229 123.531 284.938 137.414 277.11 152.44C279.624 154.23 281.763 156.083 283.825 158.383C290.225 149.122 298.19 140.744 305.277 131.997ZM296.922 204.652C295.871 206.567 295.271 208.36 294.626 210.435C294.313 210.894 294.192 210.875 294.26 211.454C296.147 212.078 334.463 203.596 342.904 202.269C348.249 201.553 363.462 202.55 364.391 197.008C362.708 190.568 355.457 193.058 350.599 193.617C339.935 194.844 305.759 199.768 296.922 204.652ZM150.514 192.445C148.562 193.711 147.572 194.819 146.744 197.008C149.88 195.761 157.273 197.124 160.523 198.018C175.395 199.561 190.622 202.854 205.051 206.587C208.68 207.526 213.972 209.863 216.667 210.435C216.16 208.544 215.896 206.565 215.441 204.652C195.955 199.177 170.983 193.733 150.514 192.445ZM294.626 177.691C294.932 178.981 295.161 180.433 295.624 181.668C297.057 180.815 302.78 174.9 304.919 173.158C312.076 167.328 341.434 145.763 350.519 144.707C349.854 143.392 348.529 141.473 346.97 141.14C342.532 140.19 299.705 169.214 294.626 177.691ZM154.787 248.149C159.466 247.293 164.116 246.211 168.78 245.275L196.71 239.75C202.914 238.505 209.105 236.589 215.441 236.187C216.254 235.346 217.26 234.482 217.88 233.491C206.606 232.611 158.283 240.957 155.066 244.038C153.884 245.171 154.212 246.799 154.787 248.149ZM321.3 343.268C320.472 345.452 324.005 387.448 327.459 389.935C328.376 390.856 330.537 390.307 331.396 389.632C334.041 387.555 325.467 349.921 326.271 342.051C324.621 342.394 322.871 342.656 321.3 343.268ZM162.025 143.324C165.786 143.269 169.807 147.961 173.249 149.531C179.653 153.935 186.142 158.183 192.459 162.718L211.09 176.366C212.826 177.626 214.643 179.573 216.667 180.273L217.88 177.691C208.378 167.338 185.517 152.713 173.744 145.002C169.478 142.207 165.742 137.474 162.025 143.324ZM154.787 311.172C157.692 309.4 160.303 307.03 162.955 304.9C175.629 294.72 189.258 285.879 202.108 275.994C202.374 274.821 202.629 273.643 202.916 272.474C196.428 275.35 153.917 303.163 152.573 307.204C152.055 308.762 153.677 310.334 154.787 311.172ZM295.624 235.293C296.479 236.553 297.484 237.749 298.417 238.956C302.294 233.474 348.815 245.801 357.409 246.849C357.907 245.041 357.549 243.483 355.784 242.519C349.124 238.881 306.897 231.711 295.624 235.293ZM310.231 272.474C310.798 275.087 311.106 277.683 310.962 280.355C313.751 279.094 316.265 280.862 318.591 282.356C324.137 285.921 355.692 307.226 358.185 310.116C359.026 309.175 360.087 308.09 359.752 306.713C358.876 303.112 317.154 277.097 310.231 272.474ZM187.097 342.051C185.422 356.068 181.811 371.861 180.849 385.535C180.632 388.621 180.888 391.025 184.725 389.935C187.6 387.812 187.393 378.919 187.793 375.55C188.619 368.597 189.833 348.882 191.545 343.268C190.065 342.856 188.587 342.429 187.097 342.051ZM361.819 250.156L359.552 252.679C368.307 261.283 386.67 279.518 397.754 284.971L398.322 284.882C399.819 282.217 376.23 263.217 371.232 258.812C368.032 255.992 364.926 253.077 361.819 250.156ZM190.032 337.755L190.394 337.508C191.262 333.158 203.704 314.079 206.759 312.985L204.831 307.582C201.846 311.254 185.861 330.934 186.351 334.444C186.612 336.31 188.456 337.191 190.032 337.755ZM307.444 308.363L305.794 312.985C310.106 316.47 316.438 328.153 319.925 333.296C320.823 334.565 322.061 336.89 323.276 337.755C332.144 333.841 310.855 311.634 307.444 308.363ZM389.89 89.9973C381.332 101.74 378.687 101.021 370.301 109.323C366.813 112.777 348.527 134.83 351.332 138.642C354.057 139.045 359.756 127.551 362.021 124.443C367.85 116.445 389.859 94.2577 389.89 89.9973ZM150.514 251.194C146.437 254.134 117.898 278.181 117.019 281.15L117.2 281.474C117.532 281.499 117.869 281.546 118.201 281.524C128.908 274.835 138.085 266.808 147.009 257.894C148.424 256.48 153.603 253.099 150.514 251.194ZM199.53 137.947C202.199 138.925 220.841 161.159 222.97 163.955L224.794 161.684C220.246 156.281 216.025 150.594 211.605 145.084C209.218 142.107 203.736 132.677 199.53 137.947ZM287.315 163.063C295.567 160.171 306.303 138.012 313.24 139.503C312.465 137.335 310.887 135.345 308.378 136.42C306.046 137.418 285.713 160.933 287.315 163.063ZM123.359 92.1631C131.051 107.398 150.1 118.242 159.653 137.947L162.025 136.719L162.366 136.369C160.82 130.275 137.582 106.51 132.627 102.468C127.536 98.3138 125.742 94.1581 123.359 92.1631ZM360.488 314.241C359.469 314.846 358.522 315.338 357.409 315.752C362.367 327.198 368.713 337.834 375.217 348.452L376.524 350.196C371.79 338.801 366.02 325.491 360.908 314.347L360.488 314.241ZM114.666 167.119C121.139 172.882 138.127 191.4 143.715 192.23L144.536 191.87C145.682 188.105 128.925 178.03 125.049 174.999C122.499 173.005 117.629 167.997 114.666 167.119ZM397.754 164.999C387.833 174.019 377.456 182.491 366.858 190.697C366.834 191.483 367.261 191.852 367.756 192.445C371.359 193.13 394.961 168.718 397.801 165.512L397.849 165.107L397.754 164.999ZM305.277 89.9973C307.574 101.85 309.488 119.589 309.208 131.997L312.226 131.997C312.21 124.23 307.298 92.0299 305.277 89.9973ZM206.273 92.1631C204.163 99.6387 199.544 124.985 200.397 131.997C204.396 131.547 202.956 125.988 203.237 121.907C203.497 118.122 206.472 92.88 206.273 92.1631ZM151.421 315.752C150.527 317.98 138.199 347.188 138.206 347.579C138.544 347.112 138.891 346.65 139.206 346.169C144.834 336.745 148.935 326.401 154.229 316.788C153.305 316.409 152.392 315.998 151.421 315.752ZM184.725 395.03L183.907 395.755C184.584 400.873 191.546 416.491 193.445 423.463L193.681 423.236C193.248 419.044 187.88 397.24 185.507 395.222L184.725 395.03ZM327.459 395.03C324.662 399.074 318.55 420.955 318.674 423.798L318.919 423.463C321.066 417.555 330.893 395.477 327.459 395.03ZM402.636 287.156C402.256 290.914 423.1 297.207 427.27 298.686C426.056 297.477 404.929 287.668 402.636 287.156ZM316.703 334.597C318.719 337.032 320.176 337.969 323.276 337.755C322.061 336.89 320.823 334.565 319.925 333.296L319.364 333.247L319.143 333.463C317.351 332.989 317.502 333.3 316.703 334.597Z"/>
	<path fill="#21A7C0" transform="scale(2 2)" d="M112.947 284.971L113.597 285.137L113.869 285.64C112.252 287.937 96.7722 294.353 93.3398 295.593L93.1087 295.624L93.0659 295.486C98.6404 292.428 107.412 287.363 112.947 284.971Z"/>
	<path fill="#21A7C0" transform="scale(2 2)" d="M304.625 315.752L305.794 312.985C310.106 316.47 316.438 328.153 319.925 333.296L319.364 333.247L319.143 333.463C317.351 332.989 317.502 333.3 316.703 334.597C312.164 329 308.231 321.988 304.625 315.752Z"/>
	<path fill="#21A7C0" transform="scale(2 2)" d="M206.759 312.985L207.962 316.788C204.878 321.568 195.272 338.199 190.032 337.755L190.394 337.508C191.262 333.158 203.704 314.079 206.759 312.985Z"/>
	<path fill="#21A7C0" transform="scale(2 2)" d="M287.315 163.063C295.567 160.171 306.303 138.012 313.24 139.503C311.744 143.279 293.72 162.981 289.829 167.119C289.047 165.775 288.304 164.256 287.315 163.063Z"/>
	<path fill="#21A7C0" transform="scale(2 2)" d="M199.53 137.947C202.199 138.925 220.841 161.159 222.97 163.955C222.589 165.24 222.171 166.507 221.741 167.777C217.844 164.566 196.754 143.085 199.53 137.947Z"/>
	<path fill="#21A7C0" transform="scale(2 2)" d="M310.962 280.355C313.751 279.094 316.265 280.862 318.591 282.356C324.137 285.921 355.692 307.226 358.185 310.116C357.242 310.702 356.31 310.91 355.247 311.172C345.663 308.667 325.684 291.568 317.031 284.885C315.373 283.605 312.256 281.714 310.962 280.355Z"/>
	<path fill="#21A7C0" transform="scale(2 2)" d="M202.108 275.994C202.135 277.438 202.237 278.917 202.108 280.355C187.988 289.649 171.421 305.691 157.629 312.985C156.594 312.44 155.7 311.907 154.787 311.172C157.692 309.4 160.303 307.03 162.955 304.9C175.629 294.72 189.258 285.879 202.108 275.994Z"/>
	<path fill="#21A7C0" transform="scale(2 2)" d="M154.787 248.149C159.466 247.293 164.116 246.211 168.78 245.275L196.71 239.75C202.914 238.505 209.105 236.589 215.441 236.187C214.979 237.429 214.584 238.822 213.892 239.953C195.938 243.025 177.371 248.592 159.882 251.183C156.786 251.641 156.112 250.834 154.787 248.149Z"/>
	<path fill="#21A7C0" transform="scale(2 2)" d="M350.519 144.707C350.353 149.783 339.51 153.626 335.218 156.108C325.949 161.469 302.683 177.013 296.922 185.443C296.465 184.337 295.677 182.861 295.624 181.668C297.057 180.815 302.78 174.9 304.919 173.158C312.076 167.328 341.434 145.763 350.519 144.707Z"/>
	<path fill="#21A7C0" transform="scale(2 2)" d="M146.744 197.008C149.88 195.761 157.273 197.124 160.523 198.018C175.395 199.561 190.622 202.854 205.051 206.587C208.68 207.526 213.972 209.863 216.667 210.435C217.182 211.43 217.51 212.52 217.88 213.576C206.09 209.167 167.902 200.237 154.229 200.908C151.532 200.189 147.298 200.402 146.744 197.008Z"/>
	<path transform="scale(2 2)" d="M146.744 197.008C149.88 195.761 157.273 197.124 160.523 198.018C158.732 199.579 151.679 195.63 149.139 197.004L149.2 197.165C151.706 197.399 161.215 197.657 154.229 200.908C151.532 200.189 147.298 200.402 146.744 197.008Z"/>
	<path fill="#21A7C0" transform="scale(2 2)" d="M162.025 143.324C165.786 143.269 169.807 147.961 173.249 149.531C179.653 153.935 186.142 158.183 192.459 162.718L211.09 176.366C212.826 177.626 214.643 179.573 216.667 180.273L215.441 184.472C204.98 175.71 193.69 167.492 182.516 159.69C178.406 156.82 173.485 154.609 169.655 151.426C166.516 149.79 160.428 147.71 162.025 143.324Z"/>
	<path transform="scale(2 2)" d="M162.025 143.324C165.786 143.269 169.807 147.961 173.249 149.531C170.641 150.244 166.103 146.016 164.242 144.561L164.112 144.788C164.38 145.578 169.419 150.636 169.655 151.426C166.516 149.79 160.428 147.71 162.025 143.324Z"/>
	<path fill="#21A7C0" transform="scale(2 2)" d="M298.417 238.956C302.294 233.474 348.815 245.801 357.409 246.849C354.592 253.569 348.054 250.665 342.644 249.564C328.616 246.707 313.989 240.589 299.755 240.803L298.417 238.956Z"/>
	<path fill="#21A7C0" transform="scale(2 2)" d="M326.271 375.435C326.699 378.559 328.221 385.803 327.459 388.565C325.073 385.863 325.137 378.587 326.271 375.435Z"/>
	<path fill="#21A7C0" transform="scale(2 2)" d="M224.794 214.782L225.014 214.608C226.596 213.338 227.781 211.569 229.556 210.563C240.611 204.302 268.996 204.928 280.483 212.402C282.227 213.537 283.843 214.982 285.62 216.029C284.181 217.933 282.504 219.613 280.74 221.213C265.732 209.343 245.947 212.076 230.247 221.213C228.249 219.21 226.449 217.074 224.794 214.782Z"/>
	<path fill="#21A7C0" transform="scale(2 2)" d="M294.626 210.435L294.914 210.544C298.801 205.74 333.401 200.722 340.332 199.351L340.551 199.742L339.622 200.015C340.959 200.476 341.487 201.935 342.904 202.269C334.463 203.596 296.147 212.078 294.26 211.454C294.192 210.875 294.313 210.894 294.626 210.435Z"/>
	<path fill="#21A7C0" transform="scale(2 2)" d="M211.699 312.985C201.069 282.3 209.169 232.579 242.496 220.884C269.867 211.279 293.129 232.177 301.56 257.14C309.757 281.415 306.357 299.082 296.922 321.352L295.856 322.27C295.283 321.849 295.965 320.212 296.147 319.572C302.548 297.048 300.904 270.751 290.474 249.761C288.439 245.665 285.982 241.765 283.825 237.728C274.731 230.05 265.937 224.756 253.631 225.797C242.732 226.719 231.297 235.871 226.517 245.56C215.268 263.332 210.76 283.607 211.809 304.384C211.924 306.661 213.018 311.003 211.699 312.985Z"/>
	<path fill="#21A7C0" transform="scale(2 2)" d="M283.825 237.728C285.982 241.765 288.439 245.665 290.474 249.761C300.904 270.751 302.548 297.048 296.147 319.572C295.965 320.212 295.283 321.849 295.856 322.27L296.922 321.352C296.035 323.552 294.129 325.797 292.692 327.713C283.305 340.227 266.468 359.118 248.731 352.73C231.892 346.666 219.2 328.746 211.699 312.985C213.018 311.003 211.924 306.661 211.809 304.384C210.76 283.607 215.268 263.332 226.517 245.56C227.189 247.304 224.663 257.033 224.239 259.635C220.607 281.925 224.727 304.497 237.179 323.443C241.127 329.449 248.802 338.965 256.047 340.459L257.256 340.078C265.077 337.638 271.627 328.662 275.822 322.186C289.755 300.674 295.94 271.255 286.51 246.765C285.447 244.005 283.165 240.811 283.825 237.728Z"/>
	<path transform="scale(2 2)" d="M224.794 214.782C209.549 190.121 230.766 143.943 262.746 151.768C286.556 157.594 301.305 196.225 285.62 216.029C283.843 214.982 282.227 213.537 280.483 212.402C268.996 204.928 240.611 204.302 229.556 210.563C227.781 211.569 226.596 213.338 225.014 214.608L224.794 214.782Z"/>
	<path fill="#1CA9C0" transform="scale(2 2)" d="M275.128 170.504C284.235 170.494 279.252 189.243 267.309 192.445C256.078 191.315 267.764 174.226 275.128 170.504Z"/>
	<path fill="#1CA9C0" transform="scale(2 2)" d="M234.955 170.504C241.988 170.305 254.129 186.598 247.262 191.87C236.003 193.381 226.738 174.008 234.955 170.504Z"/>
	<path transform="scale(2 2)" d="M226.517 245.56C231.297 235.871 242.732 226.719 253.631 225.797C265.937 224.756 274.731 230.05 283.825 237.728C283.165 240.811 285.447 244.005 286.51 246.765C295.94 271.255 289.755 300.674 275.822 322.186C271.627 328.662 265.077 337.638 257.256 340.078L256.047 340.459C248.802 338.965 241.127 329.449 237.179 323.443C224.727 304.497 220.607 281.925 224.239 259.635C224.663 257.033 227.189 247.304 226.517 245.56Z"/>
</svg>
